<?xml version="1.0" encoding="UTF-8"?>
<svg version="1.1" xmlns="http://www.w3.org/2000/svg" width="512" height="512">
<path d="M0 0 C26.43141946 24.38685164 43.6763272 55.26247856 52.60644531 90.02050781 C52.83686523 90.90762451 53.06728516 91.79474121 53.3046875 92.70874023 C57.66275541 110.72496736 58.8446685 128.66895578 58.73144531 147.14550781 C58.72638474 148.75575333 58.72638474 148.75575333 58.72122192 150.39852905 C58.64610559 166.93287883 57.88946201 182.82648645 54.29394531 199.02050781 C54.05788574 200.12942383 53.82182617 201.23833984 53.57861328 202.38085938 C38.42197872 272.25186978 -2.9457335 337.73838813 -57.40136719 384.05957031 C-59.30910209 385.68276171 -61.19424625 387.32532863 -63.07324219 388.98144531 C-76.02314997 400.36662884 -89.63881583 410.77707435 -103.7878418 420.63427734 C-105.89107315 422.10538732 -105.89107315 422.10538732 -108.36230469 424.37988281 C-113.92982419 427.11160967 -119.6622693 426.51662422 -125.76855469 426.39550781 C-127.1584409 426.37901211 -128.54833379 426.36307065 -129.93823242 426.34765625 C-210.83142206 425.19057049 -294.3198228 405.00064605 -358.70605469 354.02050781 C-359.69863281 353.240625 -360.69121094 352.46074219 -361.71386719 351.65722656 C-377.68214461 338.85075905 -393.30078729 324.34440661 -405.70605469 308.02050781 C-406.12274414 307.48022949 -406.53943359 306.93995117 -406.96875 306.38330078 C-414.65172622 296.38870698 -421.39720031 285.9295685 -427.70605469 275.02050781 C-428.30546875 273.98869385 -428.30546875 273.98869385 -428.91699219 272.93603516 C-445.27333023 244.42907855 -454.16599785 212.90292205 -454.08105469 180.08300781 C-454.07984619 179.21956757 -454.0786377 178.35612732 -454.07739258 177.46652222 C-454.02616136 163.96662893 -453.38483766 151.08635983 -449.70605469 138.02050781 C-449.43760742 137.05693359 -449.16916016 136.09335938 -448.89257812 135.10058594 C-443.20648689 115.34094662 -435.01421506 97.76061628 -421.70605469 82.02050781 C-421.07828125 81.25351563 -420.45050781 80.48652344 -419.80371094 79.69628906 C-397.70042035 53.38284789 -362.15584304 40.1814325 -328.70605469 37.02050781 C-325.82406343 36.87329233 -322.94696432 36.83368572 -320.06152344 36.81738281 C-319.25225906 36.81168274 -318.44299469 36.80598267 -317.60920715 36.80010986 C-315.90069866 36.79071507 -314.1921725 36.78414802 -312.48364258 36.78027344 C-309.93829265 36.77067649 -307.3937902 36.73964617 -304.84863281 36.70800781 C-290.09380246 36.61262099 -275.59142386 38.3008915 -261.33105469 42.20800781 C-260.57848389 42.40869873 -259.82591309 42.60938965 -259.05053711 42.81616211 C-249.36344456 45.51555133 -240.02437004 49.26716145 -230.70605469 53.02050781 C-230.24457031 52.23289062 -229.78308594 51.44527344 -229.30761719 50.63378906 C-221.45314156 37.51712521 -212.23370297 26.08001351 -201.70605469 15.02050781 C-200.66771484 13.88548828 -200.66771484 13.88548828 -199.60839844 12.72753906 C-146.44227652 -43.51176909 -58.27427384 -52.34908077 0 0 Z " fill="#E81E62" transform="translate(453.7060546875,77.9794921875)"/>
<path d="M0 0 C26.43141946 24.38685164 43.6763272 55.26247856 52.60644531 90.02050781 C52.83686523 90.90762451 53.06728516 91.79474121 53.3046875 92.70874023 C57.66275541 110.72496736 58.8446685 128.66895578 58.73144531 147.14550781 C58.72638474 148.75575333 58.72638474 148.75575333 58.72122192 150.39852905 C58.64610559 166.93287883 57.88946201 182.82648645 54.29394531 199.02050781 C54.05788574 200.12942383 53.82182617 201.23833984 53.57861328 202.38085938 C38.42197872 272.25186978 -2.9457335 337.73838813 -57.40136719 384.05957031 C-59.30910209 385.68276171 -61.19424625 387.32532863 -63.07324219 388.98144531 C-76.02314997 400.36662884 -89.63881583 410.77707435 -103.7878418 420.63427734 C-105.89107315 422.10538732 -105.89107315 422.10538732 -108.36230469 424.37988281 C-113.92982419 427.11160967 -119.6622693 426.51662422 -125.76855469 426.39550781 C-127.1584409 426.37901211 -128.54833379 426.36307065 -129.93823242 426.34765625 C-210.83142206 425.19057049 -294.3198228 405.00064605 -358.70605469 354.02050781 C-359.69863281 353.240625 -360.69121094 352.46074219 -361.71386719 351.65722656 C-377.68214461 338.85075905 -393.30078729 324.34440661 -405.70605469 308.02050781 C-406.12274414 307.48022949 -406.53943359 306.93995117 -406.96875 306.38330078 C-414.65172622 296.38870698 -421.39720031 285.9295685 -427.70605469 275.02050781 C-428.30546875 273.98869385 -428.30546875 273.98869385 -428.91699219 272.93603516 C-445.27333023 244.42907855 -454.16599785 212.90292205 -454.08105469 180.08300781 C-454.07984619 179.21956757 -454.0786377 178.35612732 -454.07739258 177.46652222 C-454.02616136 163.96662893 -453.38483766 151.08635983 -449.70605469 138.02050781 C-449.43760742 137.05693359 -449.16916016 136.09335938 -448.89257812 135.10058594 C-443.20648689 115.34094662 -435.01421506 97.76061628 -421.70605469 82.02050781 C-421.07828125 81.25351563 -420.45050781 80.48652344 -419.80371094 79.69628906 C-397.70042035 53.38284789 -362.15584304 40.1814325 -328.70605469 37.02050781 C-325.82406343 36.87329233 -322.94696432 36.83368572 -320.06152344 36.81738281 C-319.25225906 36.81168274 -318.44299469 36.80598267 -317.60920715 36.80010986 C-315.90069866 36.79071507 -314.1921725 36.78414802 -312.48364258 36.78027344 C-309.93829265 36.77067649 -307.3937902 36.73964617 -304.84863281 36.70800781 C-290.09380246 36.61262099 -275.59142386 38.3008915 -261.33105469 42.20800781 C-260.57848389 42.40869873 -259.82591309 42.60938965 -259.05053711 42.81616211 C-249.36344456 45.51555133 -240.02437004 49.26716145 -230.70605469 53.02050781 C-230.24457031 52.23289062 -229.78308594 51.44527344 -229.30761719 50.63378906 C-221.45314156 37.51712521 -212.23370297 26.08001351 -201.70605469 15.02050781 C-200.66771484 13.88548828 -200.66771484 13.88548828 -199.60839844 12.72753906 C-146.44227652 -43.51176909 -58.27427384 -52.34908077 0 0 Z M-196.26855469 34.70800781 C-205.18336618 44.91743348 -212.65963775 56.30118457 -218.98730469 68.26269531 C-220.74211512 71.07836842 -221.71370554 72.59808832 -224.70605469 74.02050781 C-230.16120465 73.87167217 -234.28346307 71.94144338 -239.01855469 69.45800781 C-276.12789783 51.1128042 -320.37005685 48.54690488 -359.64355469 61.20800781 C-373.8278965 66.09984867 -386.6715201 72.74308728 -397.70605469 83.02050781 C-398.22119629 83.4894043 -398.73633789 83.95830078 -399.26708984 84.44140625 C-417.85260315 101.47766733 -428.93320453 123.30695288 -433.70605469 148.02050781 C-433.85268555 148.71724609 -433.99931641 149.41398438 -434.15039062 150.13183594 C-443.3840201 194.57240102 -430.24908316 239.58788455 -406.08105469 277.14550781 C-390.4917531 300.6743117 -371.31292605 323.05942552 -348.42724609 339.76123047 C-346.59263248 341.10349104 -344.77986663 342.4722398 -342.96777344 343.84472656 C-335.15466851 349.72229188 -327.15751859 355.08801602 -318.70605469 360.02050781 C-318.12871582 360.36259277 -317.55137695 360.70467773 -316.95654297 361.05712891 C-282.37922087 381.48621341 -244.8656775 394.25004099 -205.47412109 401.50927734 C-203.00020318 401.96618192 -200.53066384 402.44094908 -198.06152344 402.92285156 C-187.34185073 404.97185628 -176.57948189 406.1375661 -165.70605469 407.02050781 C-164.9999707 407.07980469 -164.29388672 407.13910156 -163.56640625 407.20019531 C-159.23164366 407.54880236 -154.90332978 407.76643322 -150.55712891 407.91064453 C-148.4120336 407.99330362 -146.26786957 408.10070109 -144.12451172 408.22021484 C-124.37531012 410.0682379 -124.37531012 410.0682379 -107.09399414 402.34912109 C-106.10824021 401.40803388 -105.1387219 400.44963452 -104.18652344 399.47460938 C-102.09218836 397.41757446 -99.78326748 395.7052546 -97.44165039 393.94116211 C-86.37643787 385.58328332 -75.93620587 376.36657186 -65.70605469 367.02050781 C-64.71666691 366.12445851 -63.72707456 365.22863505 -62.73730469 364.33300781 C-54.70552195 357.04514415 -46.81144606 349.66193128 -39.75683594 341.40722656 C-38.14851319 339.53544523 -36.5206425 337.69021128 -34.87402344 335.85253906 C-3.18036589 300.2498338 21.12130055 257.19075952 33.29394531 211.02050781 C33.5237207 210.21653564 33.75349609 209.41256348 33.99023438 208.58422852 C35.86336133 201.96525757 37.26980378 195.36294286 38.41894531 188.58300781 C38.5878125 187.63619141 38.75667969 186.689375 38.93066406 185.71386719 C41.17609241 172.69215084 41.53442162 159.76217818 41.54394531 146.58300781 C41.54462006 145.74046448 41.5452948 144.89792114 41.54598999 144.02984619 C41.52962131 131.14019579 41.0295425 118.66030127 38.29394531 106.02050781 C38.12233887 105.20066406 37.95073242 104.38082031 37.77392578 103.53613281 C31.7367844 75.39517709 20.09596939 48.9804008 1.29394531 27.02050781 C0.23046875 25.77333984 0.23046875 25.77333984 -0.85449219 24.50097656 C-20.84616349 1.66838355 -49.67191253 -15.96296666 -80.48242188 -18.17919922 C-125.98102975 -20.04825513 -165.72503885 2.29335768 -196.26855469 34.70800781 Z " fill="#010000" transform="translate(453.7060546875,77.9794921875)"/>
<path d="M0 0 C32.13024902 7.57863368 58.74270075 32.44839144 76.00390625 59.62890625 C87.37226714 78.23841028 94.5406653 98.71806673 99 120 C99.2168042 121.02395874 99.2168042 121.02395874 99.43798828 122.06860352 C104.23836792 146.07333546 104.15516225 173.86809614 100 198 C99.86045898 198.8151709 99.72091797 199.6303418 99.57714844 200.47021484 C97.68870751 211.16135653 95.2894803 221.64788277 92 232 C91.73203613 232.86077148 91.46407227 233.72154297 91.18798828 234.60839844 C86.71783858 248.88676735 81.57544279 262.55943605 75 276 C74.5673584 276.89509277 74.1347168 277.79018555 73.68896484 278.71240234 C54.66743658 317.72865334 26.12994945 354.81890968 -6.890625 383.16796875 C-9.17629546 385.15311587 -11.39701378 387.2003983 -13.625 389.25 C-19.82506073 394.8366605 -26.39008954 399.91333441 -33 405 C-33.72300293 405.55864746 -34.44600586 406.11729492 -35.19091797 406.69287109 C-37.45827238 408.44414311 -39.72847012 410.19164803 -42 411.9375 C-42.70584229 412.48116211 -43.41168457 413.02482422 -44.13891602 413.58496094 C-46.08190805 415.07155477 -48.03792743 416.53872706 -50 418 C-51.03382813 418.77988281 -52.06765625 419.55976563 -53.1328125 420.36328125 C-56.37174798 422.21221036 -58.1874456 422.4298807 -61.875 422.25 C-62.84179688 422.21390625 -63.80859375 422.1778125 -64.8046875 422.140625 C-65.52914063 422.09421875 -66.25359375 422.0478125 -67 422 C-63.57820142 418.31831798 -59.73132818 415.50509845 -55.6875 412.5625 C-47.41421266 406.44659645 -39.66725433 399.85234488 -32 393 C-31.06542969 392.17757813 -30.13085938 391.35515625 -29.16796875 390.5078125 C-22.67550411 384.6933878 -16.46522492 378.59175402 -10.27932739 372.45455933 C-8.85677941 371.04390907 -7.43028212 369.6372449 -6.00366211 368.23071289 C-0.64016716 362.87392291 4.31562587 357.35359053 9.05004883 351.43359375 C10.60338791 349.49498301 12.18064361 347.60784403 13.828125 345.75 C25.85022362 332.09910092 35.70033437 316.59895154 45 301 C45.40814941 300.31679688 45.81629883 299.63359375 46.23681641 298.9296875 C80.45116983 241.04695771 94.09155806 169.44010096 77.29296875 103.77734375 C76.8655737 102.18392734 76.43487834 100.59139034 76 99 C75.66613281 97.74316406 75.33226562 96.48632812 74.98828125 95.19140625 C69.94145943 78.36241304 61.66480744 60.98730515 51 47 C50.19781255 45.90372201 49.39573578 44.80736303 48.59375 43.7109375 C35.64405511 26.33862551 20.30486343 13.53972184 1.9140625 2.27734375 C1.28242188 1.85582031 0.65078125 1.43429688 0 1 C0 0.67 0 0.34 0 0 Z " fill="#AB1356" transform="translate(393,64)"/>
<path d="M0 0 C3.46260353 3.46260353 4.21567145 6.69286889 4.9375 11.375 C5.97944872 18.0928273 8.52745135 22.59251842 13.375 27.3125 C19.31221245 31.12927943 24.61426904 32.44548859 31.546875 33.375 C34.31940644 34.08137744 35.33024215 34.70074877 37 37 C38.07274879 40.50623263 38.35606128 43.8724726 37.25 47.375 C34.28437838 51.23030811 30.71575216 51.55518864 26.1875 52.375 C17.38887077 54.20164245 12.14038077 57.69102109 7 65 C5.74447657 67.82492772 5.09816733 70.41747875 4.5859375 73.45703125 C3.39839302 80.33069973 3.39839302 80.33069973 1.4375 83.625 C-2.20264474 85.67841498 -5.9329823 85.97379297 -10 85 C-12.73443712 82.93717901 -13.83909959 81.6945195 -14.6171875 78.3359375 C-14.70226563 77.35882813 -14.78734375 76.38171875 -14.875 75.375 C-15.94988227 67.90547916 -18.37776791 62.10661187 -24.1953125 57.1171875 C-29.69410839 53.45721725 -34.79355861 52.18684054 -41.3359375 51.6171875 C-44.6945195 50.83909959 -45.93717901 49.73443712 -48 47 C-48.97379297 42.9329823 -48.67841498 39.20264474 -46.625 35.5625 C-43.32258562 33.59677716 -40.27851236 33.12599115 -36.51953125 32.4765625 C-29.24532291 31.10066573 -23.93552994 27.34962202 -19 22 C-15.89839735 16.65240923 -15.09544839 10.94723745 -14.0390625 4.890625 C-13 2 -13 2 -10.65234375 0.11328125 C-6.77871936 -1.51261411 -3.93370968 -1.44318489 0 0 Z " fill="#000000" transform="translate(48,43)"/>
<path d="M0 0 C3.70433199 0.94674611 4.8160506 2.29745252 6.92578125 5.4921875 C7.83107652 8.75039642 8.51959092 12.01977914 9.19921875 15.33203125 C10.6912928 21.82175117 13.80156371 26.27227613 19.234375 30.1484375 C23.41109931 32.23376865 27.81740122 33.19048411 32.37792969 34.11206055 C35.16868347 34.69196178 37.50634793 35.20529511 39.87890625 36.828125 C41.22594524 38.96931385 41.35902826 40.40766498 41.36328125 42.9296875 C41.38261719 43.69152344 41.40195312 44.45335937 41.421875 45.23828125 C40.72270789 48.41481211 39.49507813 49.53017898 36.92578125 51.4921875 C33.97265625 52.36328125 33.97265625 52.36328125 30.67578125 52.9296875 C22.01072375 54.73652684 15.90783921 57.9479283 10.92578125 65.4921875 C9.37633418 69.5005397 8.29421972 73.5923265 7.4765625 77.80859375 C6.79023457 81.22764023 6.32536157 83.13700499 3.67578125 85.4921875 C0.42534492 86.67416435 -1.64140705 86.99280587 -5.07421875 86.4921875 C-8.47802938 84.38531074 -9.85974185 83.19442639 -11.04296875 79.3203125 C-11.21828125 78.13953125 -11.39359375 76.95875 -11.57421875 75.7421875 C-13.1252535 67.52681664 -15.2882282 62.30650497 -22.01171875 57.1796875 C-27.01721415 54.05652848 -32.2683998 53.15390361 -38.03515625 52.23046875 C-41.14119102 51.47591789 -42.27985216 51.0799815 -44.07421875 48.4921875 C-45.35982374 43.59081847 -45.66720693 41.67816386 -43.38671875 37.1171875 C-40.00298689 33.60186607 -35.84752106 33.6756873 -31.21484375 33.09375 C-24.63689657 31.83379494 -18.98304099 28.33725944 -15.07421875 22.8671875 C-13.1753765 19.43872233 -12.60981907 16.23116123 -12.07421875 12.3671875 C-11.03990549 4.93893771 -8.51145486 -0.80145526 0 0 Z " fill="#000000" transform="translate(471.07421875,417.5078125)"/>
<path d="M0 0 C4.40739081 0.79333035 6.25388944 2.13117274 9.125 5.5625 C10.19342643 11.7949875 6.91575835 17.63387462 4.46484375 23.16796875 C-5.09521133 47.38863307 -4.13789446 75.13943143 4.125 99.5625 C4.43699859 103.46248233 4.44079263 106.32039032 2.125 109.5625 C-1.0949566 111.862469 -3.99781308 111.96637364 -7.875 111.5625 C-13.17674267 108.65113842 -14.06893973 103.39409721 -15.703125 97.953125 C-23.83984722 68.48713096 -21.8183903 35.6719028 -8.8125 7.875 C-4.7499421 0.9293365 -4.7499421 0.9293365 0 0 Z " fill="#F4F0F2" transform="translate(53.875,195.4375)"/>
<path d="M0 0 C0.78375 0.2475 1.5675 0.495 2.375 0.75 C3.15875 0.275625 3.9425 -0.19875 4.75 -0.6875 C7.375 -2.25 7.375 -2.25 10.9375 -2.1875 C14.70431465 -1.16018691 16.10792649 -0.38902486 18.375 2.75 C19.47002333 5.80042212 19.52374736 7.26943159 18.5625 10.375 C17.375 12.75 17.375 12.75 15.375 15.75 C15.87 16.245 16.365 16.74 16.875 17.25 C18.9526427 20.71273783 19.18226829 23.86742395 18.375 27.75 C16.3125 30.75 16.3125 30.75 13.375 32.75 C9.44572743 33.30147685 7.33881375 33.34311615 3.9375 31.25 C3.421875 30.755 2.90625 30.26 2.375 29.75 C-0.3155528 30.97007944 -0.3155528 30.97007944 -2.625 32.75 C-6.89407775 33.2782226 -10.45759661 33.5088122 -14.125 31.125 C-15.99756368 28.16010751 -16.55467856 26.26607206 -16.625 22.75 C-15.1875 19.5625 -15.1875 19.5625 -13.625 16.75 C-13.3398021 13.70413067 -13.3398021 13.70413067 -15.1875 11.5 C-17.11629847 7.81012467 -16.65487188 5.72236297 -15.625 1.75 C-11.67673206 -3.63400173 -5.50462907 -2.62125194 0 0 Z " fill="#000000" transform="translate(126.625,61.25)"/>
<path d="M0 0 C0.680625 0.53625 1.36125 1.0725 2.0625 1.625 C2.701875 2.07875 3.34125 2.5325 4 3 C6.65245602 2.33903214 6.65245602 2.33903214 9 1 C11.85324437 -0.42662219 13.83454549 -0.31033868 17 0 C19.69990662 1.79993774 21.5418865 3.083773 23 6 C23.59997932 11.27981804 22.17612183 13.8313401 19 18 C19.474375 18.350625 19.94875 18.70125 20.4375 19.0625 C22.77101487 21.95605843 22.87356532 24.3333943 23 28 C21.41161066 31.57387602 20.28365642 32.81089572 17 35 C13.18453778 35.3468602 10.86721204 35.53366895 7.5625 33.5 C7.046875 33.005 6.53125 32.51 6 32 C5.38125 32.309375 4.7625 32.61875 4.125 32.9375 C0.08445749 34.95777126 -2.37236161 35.47060729 -7 35 C-9.90757389 33.02037522 -11.66093205 31.6016924 -12.41015625 28.0625 C-12.6055568 23.57678293 -11.74501615 20.66002153 -9 17 C-9.495 16.484375 -9.99 15.96875 -10.5 15.4375 C-12.57700386 12.06236872 -12.47919182 9.90199054 -12 6 C-8.56699763 0.73606304 -6.24208391 -0.49936671 0 0 Z " fill="#000000" transform="translate(80,8)"/>
<path d="M0 0 C1.12894876 0.93274109 2.25300876 1.87140122 3.375 2.8125 C4.00148438 3.33457031 4.62796875 3.85664062 5.2734375 4.39453125 C7 6 7 6 9 9 C7.824375 9.8971875 7.824375 9.8971875 6.625 10.8125 C3.85425677 12.91085249 3.85425677 12.91085249 2 16 C-1.94139078 14.33248852 -4.7892812 11.77289351 -8 9 C-7.04270084 7.87411986 -6.08412105 6.7493285 -5.125 5.625 C-4.59132812 4.99851562 -4.05765625 4.37203125 -3.5078125 3.7265625 C-2.38567993 2.44163349 -1.20628025 1.20628025 0 0 Z " fill="#F1D300" transform="translate(42,77)"/>
<path d="M0 0 C3.81684226 1.55500981 6.19195732 4.03595495 9 7 C7.4169423 11.2742558 4.49431596 13.26531794 1 16 C-1.64 13.36 -4.28 10.72 -7 8 C-1.125 1.125 -1.125 1.125 0 0 Z " fill="#F5D600" transform="translate(468,453)"/>
</svg>
